Coordinates
version=1
nRows=20
nColumns=21
inDegrees=no
endheader
time	ra_wr_s_p	ra_wr_e_f	ra_cmc1_ad_ab	ra_cmc1_f_e	ra_mcp1_f_e	ra_ip1_f_e	ra_mcp2_e_f	ra_pip2_e_f	ra_dip2_e_f	ra_mcp3_e_f	ra_pip3_e_f	ra_dip3_e_f	ra_mcp4_e_f	ra_pip4_e_f	ra_dip4_e_f	ra_mcp5_e_f	ra_pip5_e_f	ra_dip5_e_f	ra_el_e_f	ra_wr_ad_ab
0.375000	0.000000	0.087300	0.114036	0.114036	-0.102629	-0.205258	0.205258	0.273677	0.205258	0.205258	0.273677	0.205258	0.205258	0.273677	0.205258	0.205258	0.273677	0.205258	1.570796	0.085000
0.376000	0.000000	0.087300	0.113480	0.113480	-0.102128	-0.204257	0.204257	0.272342	0.204257	0.204257	0.272342	0.204257	0.204257	0.272342	0.204257	0.204257	0.272342	0.204257	1.570796	0.085000
0.377000	0.000000	0.087300	0.112932	0.112932	-0.101635	-0.203270	0.203270	0.271027	0.203270	0.203270	0.271027	0.203270	0.203270	0.271027	0.203270	0.203270	0.271027	0.203270	1.570796	0.085000
0.378000	0.000000	0.087300	0.112392	0.112392	-0.101149	-0.202299	0.202299	0.269731	0.202299	0.202299	0.269731	0.202299	0.202299	0.269731	0.202299	0.202299	0.269731	0.202299	1.570796	0.085000
0.379000	0.000000	0.087300	0.111860	0.111860	-0.100671	-0.201341	0.201341	0.268455	0.201341	0.201341	0.268455	0.201341	0.201341	0.268455	0.201341	0.201341	0.268455	0.201341	1.570796	0.085000
0.380000	0.000000	0.087300	0.111337	0.111337	-0.100199	-0.200398	0.200398	0.267198	0.200398	0.200398	0.267198	0.200398	0.200398	0.267198	0.200398	0.200398	0.267198	0.200398	1.570796	0.085000
0.381000	0.000000	0.087300	0.110821	0.110821	-0.099735	-0.199469	0.199469	0.265959	0.199469	0.199469	0.265959	0.199469	0.199469	0.265959	0.199469	0.199469	0.265959	0.199469	1.570796	0.085000
0.382000	0.000000	0.087300	0.110312	0.110312	-0.099277	-0.198555	0.198555	0.264739	0.198555	0.198555	0.264739	0.198555	0.198555	0.264739	0.198555	0.198555	0.264739	0.198555	1.570796	0.085000
0.383000	0.000000	0.087300	0.109812	0.109812	-0.098827	-0.197654	0.197654	0.263538	0.197654	0.197654	0.263538	0.197654	0.197654	0.263538	0.197654	0.197654	0.263538	0.197654	1.570796	0.085000
0.384000	0.000000	0.087300	0.109319	0.109319	-0.098383	-0.196767	0.196767	0.262355	0.196767	0.196767	0.262355	0.196767	0.196767	0.262355	0.196767	0.196767	0.262355	0.196767	1.570796	0.085000
0.385000	0.000000	0.087300	0.108834	0.108834	-0.097947	-0.195893	0.195893	0.261191	0.195893	0.195893	0.261191	0.195893	0.195893	0.261191	0.195893	0.195893	0.261191	0.195893	1.570796	0.085000
0.386000	0.000000	0.087300	0.108356	0.108356	-0.097517	-0.195033	0.195033	0.260044	0.195033	0.195033	0.260044	0.195033	0.195033	0.260044	0.195033	0.195033	0.260044	0.195033	1.570796	0.085000
0.387000	0.000000	0.087300	0.107886	0.107886	-0.097093	-0.194186	0.194186	0.258915	0.194186	0.194186	0.258915	0.194186	0.194186	0.258915	0.194186	0.194186	0.258915	0.194186	1.570796	0.085000
0.388000	0.000000	0.087300	0.107422	0.107422	-0.096677	-0.193353	0.193353	0.257804	0.193353	0.193353	0.257804	0.193353	0.193353	0.257804	0.193353	0.193353	0.257804	0.193353	1.570796	0.085000
0.389000	0.000000	0.087300	0.106967	0.106967	-0.096266	-0.192533	0.192533	0.256710	0.192533	0.192533	0.256710	0.192533	0.192533	0.256710	0.192533	0.192533	0.256710	0.192533	1.570796	0.085000
0.390000	0.000000	0.087300	0.106518	0.106518	-0.095863	-0.191725	0.191725	0.255634	0.191725	0.191725	0.255634	0.191725	0.191725	0.255634	0.191725	0.191725	0.255634	0.191725	1.570796	0.085000
0.391000	0.000000	0.087300	0.106077	0.106077	-0.095465	-0.190931	0.190931	0.254574	0.190931	0.190931	0.254574	0.190931	0.190931	0.254574	0.190931	0.190931	0.254574	0.190931	1.570796	0.085000
0.392000	0.000000	0.087300	0.105642	0.105642	-0.095074	-0.190149	0.190149	0.253532	0.190149	0.190149	0.253532	0.190149	0.190149	0.253532	0.190149	0.190149	0.253532	0.190149	1.570796	0.085000
0.393000	0.000000	0.087300	0.105215	0.105215	-0.094690	-0.189380	0.189380	0.252506	0.189380	0.189380	0.252506	0.189380	0.189380	0.252506	0.189380	0.189380	0.252506	0.189380	1.570796	0.085000
0.394000	0.000000	0.087300	0.104794	0.104794	-0.094311	-0.188623	0.188623	0.251497	0.188623	0.188623	0.251497	0.188623	0.188623	0.251497	0.188623	0.188623	0.251497	0.188623	1.570796	0.085000
